<svg width="45" height="47" viewBox="0 0 45 47" fill="none" xmlns="http://www.w3.org/2000/svg">
<path d="M41.9795 19.3522H35.3566C29.9253 19.3522 25.5024 14.9293 25.5024 9.49808V2.87516C25.5024 1.61475 24.4712 0.583496 23.2107 0.583496H13.4941C6.43574 0.583496 0.729492 5.16683 0.729492 13.3481V33.6522C0.729492 41.8335 6.43574 46.4168 13.4941 46.4168H31.5066C38.5649 46.4168 44.2712 41.8335 44.2712 33.6522V21.6439C44.2712 20.3835 43.2399 19.3522 41.9795 19.3522ZM21.4232 27.0064C21.0795 27.3502 20.6441 27.5106 20.2087 27.5106C19.7732 27.5106 19.3378 27.3502 18.9941 27.0064L17.3441 25.3564V34.9585C17.3441 35.8981 16.5649 36.6772 15.6253 36.6772C14.6857 36.6772 13.9066 35.8981 13.9066 34.9585V25.3564L12.2566 27.0064C11.592 27.671 10.492 27.671 9.82741 27.0064C9.16283 26.3418 9.16283 25.2418 9.82741 24.5772L14.4107 19.9939C14.5712 19.8564 14.7316 19.7418 14.9149 19.6502C14.9607 19.6272 15.0295 19.6043 15.0753 19.5814C15.2128 19.5356 15.3503 19.5127 15.5107 19.4897H15.6941C15.8774 19.4897 16.0607 19.5356 16.2441 19.6043H16.2899C16.4732 19.6731 16.6566 19.8106 16.7941 19.9481C16.817 19.971 16.8399 19.971 16.8399 19.9939L21.4232 24.5772C22.0878 25.2418 22.0878 26.3418 21.4232 27.0064Z" fill="#292D32"/>
<path d="M34.9437 16.1907C37.1208 16.2136 40.1458 16.2136 42.7354 16.2136C44.0416 16.2136 44.7291 14.6782 43.8124 13.7615C40.5124 10.4386 34.5999 4.45735 31.2083 1.06569C30.2687 0.126103 28.6416 0.76777 28.6416 2.07402V10.0719C28.6416 13.4178 31.4833 16.1907 34.9437 16.1907Z" fill="#292D32"/>
</svg>
