<svg width="841" height="185" viewBox="0 0 841 185" fill="none" xmlns="http://www.w3.org/2000/svg">
<path d="M9.0625 89.125L1 88.125V69.8125H72.6875V88.125L64.625 89.125C63.5 88.3333 62.4375 86.5417 61.4375 83.75H46.0625V143.125C49.3958 144.458 51.75 145.875 53.125 147.375L51.8125 158H21.875L20.5625 147.375C21.6875 145.917 24.0417 144.5 27.625 143.125V83.75H12.25C11.25 86.5417 10.1875 88.3333 9.0625 89.125ZM75.75 103.5C75.75 102.833 75.75 102.167 75.75 101.5C75.7917 100.792 75.8333 100.083 75.875 99.375C83.8333 95.125 92.375 93 101.5 93C110.625 93 117.167 94.7292 121.125 98.1875C125.083 101.646 127.062 107.375 127.062 115.375V142.625C130.021 143.25 132.375 143.979 134.125 144.812V155.938C129.875 157.979 123.646 159 115.438 159C114.562 156.708 113.833 154.021 113.25 150.938C109.583 156.312 102.938 159 93.3125 159C89.5208 159 86.0417 158.25 82.875 156.75C79.75 155.25 77.25 153.125 75.375 150.375C73.5 147.583 72.5625 144.271 72.5625 140.438C72.5625 134.729 74.4583 130.25 78.25 127C82.0417 123.708 87.6875 122.062 95.1875 122.062H109.188V115.875C109.188 109.208 105.646 105.875 98.5625 105.875C95.8125 105.875 93.625 106.146 92 106.688C91.7917 110.312 91.2917 113.083 90.5 115H77.9375C76.4792 111.958 75.75 108.125 75.75 103.5ZM98.8125 145.938C103.188 145.938 106.646 144.667 109.188 142.125V131.625H100.188C94.0625 131.625 91 133.979 91 138.688C91 140.812 91.6458 142.562 92.9375 143.938C94.2708 145.271 96.2292 145.938 98.8125 145.938ZM138.688 103.875L139.938 94C144.521 92.9583 148.75 92.4375 152.625 92.4375C154.5 92.4375 156.208 92.4792 157.75 92.5625C159.333 92.6042 160.75 92.6667 162 92.75V99.125C164.125 97.3333 166.958 95.875 170.5 94.75C174.042 93.5833 177.438 93 180.688 93C186.271 93 190.708 93.8542 194 95.5625C197.292 97.2292 199.667 99.9792 201.125 103.812C202.583 107.646 203.312 112.771 203.312 119.188V143.812C206.646 145.062 209 146.5 210.375 148.125L209.062 158H179.625L178.375 148.125C179.542 146.5 181.896 145.062 185.438 143.812V118.438C185.438 113.812 184.688 110.729 183.188 109.188C182.021 107.938 180.333 107.188 178.125 106.938C175.917 106.646 173.521 106.833 170.938 107.5C168.354 108.167 165.917 109.292 163.625 110.875V143.812C166.958 145.062 169.312 146.5 170.688 148.125L169.438 158H139.938L138.688 148.125C139.854 146.5 142.208 145.062 145.75 143.812V108.188C142.708 107.188 140.354 105.75 138.688 103.875ZM244.25 171.562C251.833 171.562 255.625 167 255.625 157.875V152.25C251.458 154.792 246.208 156.062 239.875 156.062C231.875 156.062 225.708 153.729 221.375 149.062C217.083 144.354 214.938 136.542 214.938 125.625C214.938 103.875 224.917 93 244.875 93C249.958 93 254.75 94.1042 259.25 96.3125C260.042 94.7708 261.312 94 263.062 94H273.562V157C273.562 166.375 271.229 173.312 266.562 177.812C261.938 182.354 254.75 184.625 245 184.625C241.583 184.625 238.042 184.354 234.375 183.812C230.75 183.271 227.375 182.521 224.25 181.562C221.125 180.604 218.625 179.542 216.75 178.375C216.708 177.958 216.667 177.562 216.625 177.188C216.625 176.812 216.625 176.438 216.625 176.062C216.625 171.354 217.729 166.833 219.938 162.5H231.188C232.146 164.292 232.833 166.667 233.25 169.625C236.458 170.917 240.125 171.562 244.25 171.562ZM232.625 124.875C232.625 131.208 233.5 135.667 235.25 138.25C236.458 140 238.25 141.146 240.625 141.688C243 142.229 245.542 142.229 248.25 141.688C251 141.104 253.458 140.062 255.625 138.562V108.188C252.25 106.771 248.542 106.062 244.5 106.062C236.583 106.062 232.625 112.333 232.625 124.875ZM344.75 124.438C344.75 132.771 343.333 139.479 340.5 144.562C337.667 149.604 333.812 153.271 328.938 155.562C324.104 157.812 318.646 158.938 312.562 158.938C303.062 158.938 295.75 156.417 290.625 151.375C285.542 146.292 283 137.771 283 125.812C283 115.062 285.812 106.917 291.438 101.375C297.104 95.7917 304.833 93 314.625 93C324.625 93 332.146 95.4583 337.188 100.375C342.229 105.292 344.75 113.312 344.75 124.438ZM301.625 125.5C301.625 139.125 305.729 145.938 313.938 145.938C318.104 145.938 321.188 144.396 323.188 141.312C325.188 138.188 326.188 133.083 326.188 126C326.188 112.708 322 106.062 313.625 106.062C309.542 106.062 306.521 107.542 304.562 110.5C302.604 113.417 301.625 118.417 301.625 125.5ZM399.562 84.8125C397.021 83.6875 393.188 83.125 388.062 83.125C382.938 83.125 378.792 85.3333 375.625 89.75C372.458 94.1667 370.875 101.938 370.875 113.062C370.875 124.146 372.396 132.021 375.438 136.688C378.479 141.354 382.979 143.688 388.938 143.688C398.062 143.688 406.25 142.312 413.5 139.562L418.125 150.938C409.083 156.312 398.458 159 386.25 159C374.042 159 365.229 155.542 359.812 148.625C354.396 141.792 351.688 130.5 351.688 114.75C351.688 99.0417 355.042 87.4375 361.75 79.9375C368.458 72.3958 377.854 68.625 389.938 68.625C399.688 68.625 408.958 71.3333 417.75 76.75V79.625C417.75 80.5833 417.604 82.0625 417.312 84.0625C417.062 86.0208 416.667 88.0833 416.125 90.25C415.625 92.375 415 94.1875 414.25 95.6875H402.125C400.917 93.3125 400.062 89.6875 399.562 84.8125ZM426.75 103.5C426.75 102.833 426.75 102.167 426.75 101.5C426.792 100.792 426.833 100.083 426.875 99.375C434.833 95.125 443.375 93 452.5 93C461.625 93 468.167 94.7292 472.125 98.1875C476.083 101.646 478.062 107.375 478.062 115.375V142.625C481.021 143.25 483.375 143.979 485.125 144.812V155.938C480.875 157.979 474.646 159 466.438 159C465.562 156.708 464.833 154.021 464.25 150.938C460.583 156.312 453.938 159 444.312 159C440.521 159 437.042 158.25 433.875 156.75C430.75 155.25 428.25 153.125 426.375 150.375C424.5 147.583 423.562 144.271 423.562 140.438C423.562 134.729 425.458 130.25 429.25 127C433.042 123.708 438.688 122.062 446.188 122.062H460.188V115.875C460.188 109.208 456.646 105.875 449.562 105.875C446.812 105.875 444.625 106.146 443 106.688C442.792 110.312 442.292 113.083 441.5 115H428.938C427.479 111.958 426.75 108.125 426.75 103.5ZM449.812 145.938C454.188 145.938 457.646 144.667 460.188 142.125V131.625H451.188C445.062 131.625 442 133.979 442 138.688C442 140.812 442.646 142.562 443.938 143.938C445.271 145.271 447.229 145.938 449.812 145.938ZM515.25 104.5C509.625 104.5 506.812 106.167 506.812 109.5C506.812 112.667 509.771 115 515.688 116.5L525.75 119.188C536.167 121.938 541.375 127.958 541.375 137.25C541.375 143.625 539.146 148.854 534.688 152.938C532.438 154.938 529.417 156.438 525.625 157.438C521.833 158.396 517.75 158.917 513.375 159C509.042 159.083 504.833 158.771 500.75 158.062C496.667 157.354 493.229 156.312 490.438 154.938C490.396 154.479 490.354 154.021 490.312 153.562C490.312 153.062 490.312 152.583 490.312 152.125C490.312 147.417 491.25 143.188 493.125 139.438H503.75C504.917 141.562 505.646 143.688 505.938 145.812C507.562 146.354 510 146.625 513.25 146.625C520.75 146.625 524.5 144.479 524.5 140.188C524.5 138.854 524 137.729 523 136.812C521.917 135.938 519.896 135.062 516.938 134.188L506.812 131.25C501.604 129.792 497.542 127.646 494.625 124.812C491.75 121.938 490.312 117.708 490.312 112.125C490.312 106.5 492.583 101.917 497.125 98.375C499.375 96.5833 502.188 95.25 505.562 94.375C508.979 93.5 512.625 93.0417 516.5 93C520.375 92.9167 524.167 93.2083 527.875 93.875C531.583 94.5 534.896 95.4375 537.812 96.6875C537.854 97.1042 537.875 97.5208 537.875 97.9375C537.917 98.3542 537.938 98.7917 537.938 99.25C537.938 103.625 537 107.729 535.125 111.562H524.625C523.458 109.521 522.729 107.458 522.438 105.375C519.979 104.792 517.583 104.5 515.25 104.5ZM561.375 77.875H570.688V94H589V104.75H570.688V137.125C570.688 139.917 571.083 141.896 571.875 143.062C572.458 143.979 573.542 144.562 575.125 144.812C576.75 145.021 578.604 144.958 580.688 144.625C582.771 144.292 584.771 143.75 586.688 143L590.562 153C583.979 156.333 577.25 158 570.375 158C563.5 158 558.854 156.542 556.438 153.625C554.021 150.667 552.812 146.375 552.812 140.75V104.75H547.062L545.625 96.9375C547 95.3125 549.812 93.6875 554.062 92.0625C555.146 85.0208 557.583 80.2917 561.375 77.875Z" fill="#16A77C"/>
<path d="M635.798 92.2784C652.375 92.1519 668.745 87.8433 685.337 88.3908C686.067 88.4149 688.27 88.091 688.42 89.3953M688.42 89.3953C688.667 91.5424 688.869 87.329 688.42 89.3953ZM688.42 89.3953C687.141 95.2834 685.423 100.859 683.583 106.578C680.936 114.807 680.101 124.215 673.059 129.849C669.503 132.693 665.212 133.632 660.754 134.062C653.159 134.795 648.1 129.176 644.09 123.433C639.635 117.053 638.342 110.109 635.798 102.88C634.856 100.204 631.584 95.1632 632.29 92.2778" stroke="#16A77C" stroke-width="12" stroke-linecap="round"/>
<path d="M753.174 89.4473C756.79 93.4319 759.229 96.8257 760.893 102.012C762.869 108.173 761.562 114.197 758.991 120.063C756.876 124.888 755.821 127.875 751.734 132.112" stroke="#16A77C" stroke-width="12" stroke-linecap="round"/>
<path d="M782.766 68.5C798.111 83.2571 799.712 104.136 792.753 124.358C790.944 129.611 788.178 134.298 785.286 139.016C784.16 140.853 783.172 142.862 781.598 144.357" stroke="#16A77C" stroke-width="12" stroke-linecap="round"/>
<path d="M811.296 56C819.01 61.8206 822.087 66.409 827.146 74.75C832.481 83.5467 834.345 94.3449 833.486 104.437C832.298 118.398 827.724 139.15 816.217 148.393" stroke="#16A77C" stroke-width="12" stroke-linecap="round"/>
<path d="M582.027 30.7918C591.73 21.1874 602.837 12.8117 616.226 9.39453C627.333 6.55966 639.349 5.18851 650.77 6.50086C676.921 9.50588 698.68 22.5721 712.013 45.5522C718.925 57.4641 721.538 70.5339 720.842 84.2583C720.141 98.0967 716.295 113.162 708.271 124.75C700.485 135.994 690.841 145.391 678.32 151.105C672.087 153.949 660.39 155.911 653.478 155.997C648.152 156.064 623.515 154.992 618.614 153.213M583.762 28.921C581.022 32.4333 577.828 35.5822 575.332 39.2832C572.913 42.8699 570.662 46.6091 569 50.6093" stroke="#16A77C" stroke-width="12" stroke-linecap="round"/>
<path d="M613.978 74.9458C615.212 72.8202 616.387 70.6432 617.837 68.6489C618.661 67.5166 619.98 65.0957 621.561 64.827C623.843 64.439 626.174 65.3223 628.051 66.4938C630.744 68.1754 633.078 69.9621 635.463 72.0331C636.184 72.6593 636.922 73.7336 637.956 73.7336" stroke="#16A77C" stroke-width="12" stroke-linecap="round"/>
<path d="M671.773 70.7052C673.677 66.7126 675.907 62.9092 678.622 59.3911C679.133 58.7284 679.809 57.9365 680.517 57.438C681.732 56.5826 683.956 56.7465 685.197 57.4212C687.347 58.5904 690.064 60.6616 691.448 62.7079C692.074 63.6333 692.462 64.8762 693.6 65.2502" stroke="#16A77C" stroke-width="12" stroke-linecap="round"/>
</svg>
