<svg width="268" height="58" viewBox="0 0 268 58" fill="none" xmlns="http://www.w3.org/2000/svg">
<path d="M2.83203 27.4766L0.3125 27.1641V21.4414H22.7148V27.1641L20.1953 27.4766C19.8438 27.2292 19.5117 26.6693 19.1992 25.7969H14.3945V44.3516C15.4362 44.7682 16.1719 45.2109 16.6016 45.6797L16.1914 49H6.83594L6.42578 45.6797C6.77734 45.224 7.51302 44.7812 8.63281 44.3516V25.7969H3.82812C3.51562 26.6693 3.18359 27.2292 2.83203 27.4766ZM23.6719 31.9688C23.6719 31.7604 23.6719 31.5521 23.6719 31.3438C23.6849 31.1224 23.6979 30.901 23.7109 30.6797C26.1979 29.3516 28.8672 28.6875 31.7188 28.6875C34.5703 28.6875 36.6146 29.2279 37.8516 30.3086C39.0885 31.3893 39.707 33.1797 39.707 35.6797V44.1953C40.6315 44.3906 41.3672 44.6185 41.9141 44.8789V48.3555C40.5859 48.9935 38.6393 49.3125 36.0742 49.3125C35.8008 48.5964 35.5729 47.7565 35.3906 46.793C34.2448 48.4727 32.168 49.3125 29.1602 49.3125C27.9753 49.3125 26.888 49.0781 25.8984 48.6094C24.9219 48.1406 24.1406 47.4766 23.5547 46.6172C22.9688 45.7448 22.6758 44.7096 22.6758 43.5117C22.6758 41.7279 23.2682 40.3281 24.4531 39.3125C25.638 38.2839 27.4023 37.7695 29.7461 37.7695H34.1211V35.8359C34.1211 33.7526 33.0143 32.7109 30.8008 32.7109C29.9414 32.7109 29.2578 32.7956 28.75 32.9648C28.6849 34.0977 28.5286 34.9635 28.2812 35.5625H24.3555C23.8997 34.612 23.6719 33.4141 23.6719 31.9688ZM30.8789 45.2305C32.2461 45.2305 33.3268 44.8333 34.1211 44.0391V40.7578H31.3086C29.3945 40.7578 28.4375 41.4935 28.4375 42.9648C28.4375 43.6289 28.6393 44.1758 29.043 44.6055C29.4596 45.0221 30.0716 45.2305 30.8789 45.2305ZM43.3398 32.0859L43.7305 29C45.1628 28.6745 46.4844 28.5117 47.6953 28.5117C48.2812 28.5117 48.8151 28.5247 49.2969 28.5508C49.7917 28.5638 50.2344 28.5833 50.625 28.6094V30.6016C51.2891 30.0417 52.1745 29.5859 53.2812 29.2344C54.388 28.8698 55.4492 28.6875 56.4648 28.6875C58.2096 28.6875 59.5964 28.9544 60.625 29.4883C61.6536 30.0091 62.3958 30.8685 62.8516 32.0664C63.3073 33.2643 63.5352 34.8659 63.5352 36.8711V44.5664C64.5768 44.957 65.3125 45.4062 65.7422 45.9141L65.332 49H56.1328L55.7422 45.9141C56.1068 45.4062 56.8424 44.957 57.9492 44.5664V36.6367C57.9492 35.1914 57.7148 34.2279 57.2461 33.7461C56.8815 33.3555 56.3542 33.1211 55.6641 33.043C54.974 32.9518 54.2253 33.0104 53.418 33.2188C52.6107 33.4271 51.849 33.7786 51.1328 34.2734V44.5664C52.1745 44.957 52.9102 45.4062 53.3398 45.9141L52.9492 49H43.7305L43.3398 45.9141C43.7044 45.4062 44.4401 44.957 45.5469 44.5664V33.4336C44.5964 33.1211 43.8607 32.6719 43.3398 32.0859ZM76.3281 53.2383C78.6979 53.2383 79.8828 51.8125 79.8828 48.9609V47.2031C78.5807 47.9974 76.9401 48.3945 74.9609 48.3945C72.4609 48.3945 70.5339 47.6654 69.1797 46.207C67.8385 44.7357 67.168 42.2943 67.168 38.8828C67.168 32.0859 70.2865 28.6875 76.5234 28.6875C78.112 28.6875 79.6094 29.0326 81.0156 29.7227C81.263 29.2409 81.6602 29 82.207 29H85.4883V48.6875C85.4883 51.6172 84.7591 53.7852 83.3008 55.1914C81.8555 56.6107 79.6094 57.3203 76.5625 57.3203C75.4948 57.3203 74.388 57.2357 73.2422 57.0664C72.1094 56.8971 71.0547 56.6628 70.0781 56.3633C69.1016 56.0638 68.3203 55.7318 67.7344 55.3672C67.7214 55.237 67.7083 55.1133 67.6953 54.9961C67.6953 54.8789 67.6953 54.7617 67.6953 54.6445C67.6953 53.1732 68.0404 51.7604 68.7305 50.4062H72.2461C72.5456 50.9661 72.7604 51.7083 72.8906 52.6328C73.8932 53.0365 75.0391 53.2383 76.3281 53.2383ZM72.6953 38.6484C72.6953 40.6276 72.9688 42.0208 73.5156 42.8281C73.8932 43.375 74.4531 43.7331 75.1953 43.9023C75.9375 44.0716 76.7318 44.0716 77.5781 43.9023C78.4375 43.7201 79.2057 43.3945 79.8828 42.9258V33.4336C78.8281 32.9909 77.6693 32.7695 76.4062 32.7695C73.9323 32.7695 72.6953 34.7292 72.6953 38.6484ZM107.734 38.5117C107.734 41.1159 107.292 43.2122 106.406 44.8008C105.521 46.3763 104.316 47.5221 102.793 48.2383C101.283 48.9414 99.5768 49.293 97.6758 49.293C94.707 49.293 92.4219 48.5052 90.8203 46.9297C89.2318 45.3411 88.4375 42.6784 88.4375 38.9414C88.4375 35.582 89.3164 33.0365 91.0742 31.3047C92.8451 29.5599 95.2604 28.6875 98.3203 28.6875C101.445 28.6875 103.796 29.4557 105.371 30.9922C106.947 32.5286 107.734 35.0352 107.734 38.5117ZM94.2578 38.8438C94.2578 43.1016 95.5404 45.2305 98.1055 45.2305C99.4076 45.2305 100.371 44.7487 100.996 43.7852C101.621 42.8086 101.934 41.2135 101.934 39C101.934 34.8464 100.625 32.7695 98.0078 32.7695C96.7318 32.7695 95.7878 33.2318 95.1758 34.1562C94.5638 35.0677 94.2578 36.6302 94.2578 38.8438ZM124.863 26.1289C124.069 25.7773 122.871 25.6016 121.27 25.6016C119.668 25.6016 118.372 26.2917 117.383 27.6719C116.393 29.0521 115.898 31.4805 115.898 34.957C115.898 38.4206 116.374 40.8815 117.324 42.3398C118.275 43.7982 119.681 44.5273 121.543 44.5273C124.395 44.5273 126.953 44.0977 129.219 43.2383L130.664 46.793C127.839 48.4727 124.518 49.3125 120.703 49.3125C116.888 49.3125 114.134 48.2318 112.441 46.0703C110.749 43.9349 109.902 40.4062 109.902 35.4844C109.902 30.5755 110.951 26.9492 113.047 24.6055C115.143 22.2487 118.079 21.0703 121.855 21.0703C124.902 21.0703 127.799 21.9167 130.547 23.6094V24.5078C130.547 24.8073 130.501 25.2695 130.41 25.8945C130.332 26.5065 130.208 27.151 130.039 27.8281C129.883 28.4922 129.688 29.0586 129.453 29.5273H125.664C125.286 28.7852 125.02 27.6523 124.863 26.1289ZM133.359 31.9688C133.359 31.7604 133.359 31.5521 133.359 31.3438C133.372 31.1224 133.385 30.901 133.398 30.6797C135.885 29.3516 138.555 28.6875 141.406 28.6875C144.258 28.6875 146.302 29.2279 147.539 30.3086C148.776 31.3893 149.395 33.1797 149.395 35.6797V44.1953C150.319 44.3906 151.055 44.6185 151.602 44.8789V48.3555C150.273 48.9935 148.327 49.3125 145.762 49.3125C145.488 48.5964 145.26 47.7565 145.078 46.793C143.932 48.4727 141.855 49.3125 138.848 49.3125C137.663 49.3125 136.576 49.0781 135.586 48.6094C134.609 48.1406 133.828 47.4766 133.242 46.6172C132.656 45.7448 132.363 44.7096 132.363 43.5117C132.363 41.7279 132.956 40.3281 134.141 39.3125C135.326 38.2839 137.09 37.7695 139.434 37.7695H143.809V35.8359C143.809 33.7526 142.702 32.7109 140.488 32.7109C139.629 32.7109 138.945 32.7956 138.438 32.9648C138.372 34.0977 138.216 34.9635 137.969 35.5625H134.043C133.587 34.612 133.359 33.4141 133.359 31.9688ZM140.566 45.2305C141.934 45.2305 143.014 44.8333 143.809 44.0391V40.7578H140.996C139.082 40.7578 138.125 41.4935 138.125 42.9648C138.125 43.6289 138.327 44.1758 138.73 44.6055C139.147 45.0221 139.759 45.2305 140.566 45.2305ZM161.016 32.2812C159.258 32.2812 158.379 32.8021 158.379 33.8438C158.379 34.8333 159.303 35.5625 161.152 36.0312L164.297 36.8711C167.552 37.7305 169.18 39.612 169.18 42.5156C169.18 44.5078 168.483 46.1419 167.09 47.418C166.387 48.043 165.443 48.5117 164.258 48.8242C163.073 49.1237 161.797 49.2865 160.43 49.3125C159.076 49.3385 157.76 49.2409 156.484 49.0195C155.208 48.7982 154.134 48.4727 153.262 48.043C153.249 47.8997 153.236 47.7565 153.223 47.6133C153.223 47.457 153.223 47.3073 153.223 47.1641C153.223 45.6927 153.516 44.3711 154.102 43.1992H157.422C157.786 43.8633 158.014 44.5273 158.105 45.1914C158.613 45.3607 159.375 45.4453 160.391 45.4453C162.734 45.4453 163.906 44.7747 163.906 43.4336C163.906 43.0169 163.75 42.6654 163.438 42.3789C163.099 42.1055 162.467 41.832 161.543 41.5586L158.379 40.6406C156.751 40.1849 155.482 39.5143 154.57 38.6289C153.672 37.7305 153.223 36.4089 153.223 34.6641C153.223 32.9062 153.932 31.474 155.352 30.3672C156.055 29.8073 156.934 29.3906 157.988 29.1172C159.056 28.8438 160.195 28.7005 161.406 28.6875C162.617 28.6615 163.802 28.7526 164.961 28.9609C166.12 29.1562 167.155 29.4492 168.066 29.8398C168.079 29.9701 168.086 30.1003 168.086 30.2305C168.099 30.3607 168.105 30.4974 168.105 30.6406C168.105 32.0078 167.812 33.2904 167.227 34.4883H163.945C163.581 33.8503 163.353 33.2057 163.262 32.5547C162.493 32.3724 161.745 32.2812 161.016 32.2812ZM175.43 23.9609H178.34V29H184.062V32.3594H178.34V42.4766C178.34 43.349 178.464 43.9674 178.711 44.332C178.893 44.6185 179.232 44.8008 179.727 44.8789C180.234 44.944 180.814 44.9245 181.465 44.8203C182.116 44.7161 182.741 44.5469 183.34 44.3125L184.551 47.4375C182.493 48.4792 180.391 49 178.242 49C176.094 49 174.642 48.5443 173.887 47.6328C173.132 46.7083 172.754 45.3672 172.754 43.6094V32.3594H170.957L170.508 29.918C170.938 29.4102 171.816 28.9023 173.145 28.3945C173.483 26.194 174.245 24.7161 175.43 23.9609Z" fill="#16A77C"/>
<g clip-path="url(#clip0_117_451)">
<path d="M202.138 30.6085C207.367 30.568 212.531 29.1893 217.765 29.3645C217.996 29.3722 218.691 29.2686 218.738 29.6859M218.738 29.6859C218.816 30.373 218.88 29.0247 218.738 29.6859ZM218.738 29.6859C218.334 31.5701 217.792 33.3544 217.212 35.1843C216.377 37.8176 216.114 40.8282 213.892 42.631C212.77 43.5413 211.417 43.8417 210.01 43.9794C207.615 44.2139 206.019 42.4157 204.754 40.5779C203.348 38.5363 202.94 36.3144 202.138 34.0011C201.841 33.1447 200.809 31.5317 201.031 30.6083" stroke="#16A77C" stroke-width="3" stroke-linecap="round"/>
<path d="M239.165 29.7031C240.306 30.9782 241.075 32.0642 241.6 33.7239C242.223 35.6953 241.811 37.623 241 39.5C240.333 41.0443 240 42 238.711 43.3558" stroke="#16A77C" stroke-width="5" stroke-linecap="round"/>
<path d="M248.5 23C253.341 27.7223 253.846 34.4036 251.65 40.8744C251.08 42.5556 250.207 44.0552 249.295 45.5651C248.94 46.1529 248.628 46.7959 248.132 47.2744" stroke="#16A77C" stroke-width="5" stroke-linecap="round"/>
<path d="M257.5 19C259.933 20.8626 260.904 22.3309 262.5 25C264.183 27.815 264.771 31.2704 264.5 34.5C264.125 38.9674 262.682 45.6081 259.052 48.5657" stroke="#16A77C" stroke-width="5" stroke-linecap="round"/>
<path d="M185.175 10.9334C188.236 7.85997 191.74 5.17974 195.964 4.08625C199.467 3.17909 203.258 2.74032 206.861 3.16028C215.11 4.12188 221.974 8.30307 226.181 15.6567C228.361 19.4685 229.185 23.6508 228.966 28.0427C228.744 32.4709 227.531 37.292 225 41C222.544 44.5982 219.501 47.6051 215.552 49.4335C213.586 50.3437 209.896 50.9715 207.715 50.9991C206.035 51.0203 198.263 50.6774 196.717 50.1081M185.723 10.3347C184.858 11.4587 183.851 12.4663 183.063 13.6506C182.3 14.7984 181.59 15.9949 181.066 17.275" stroke="#16A77C" stroke-width="5" stroke-linecap="round"/>
<path d="M195.254 25.0631C195.644 24.3829 196.014 23.6862 196.472 23.0481C196.732 22.6857 197.148 21.911 197.647 21.8251C198.367 21.7009 199.102 21.9835 199.694 22.3584C200.543 22.8965 201.28 23.4683 202.032 24.131C202.26 24.3314 202.492 24.6751 202.819 24.6751" stroke="#16A77C" stroke-width="3" stroke-linecap="round"/>
<path d="M213.486 23.7057C214.087 22.428 214.791 21.2109 215.647 20.0851C215.808 19.8731 216.022 19.6197 216.245 19.4602C216.628 19.1864 217.33 19.2389 217.721 19.4548C218.399 19.8289 219.256 20.4917 219.693 21.1465C219.89 21.4427 220.013 21.8404 220.372 21.9601" stroke="#16A77C" stroke-width="3" stroke-linecap="round"/>
</g>
<defs>
<clipPath id="clip0_117_451">
<rect width="90" height="54" fill="white" transform="translate(178)"/>
</clipPath>
</defs>
</svg>
